# Blender v2.79 (sub 0) OBJ File: 'propeller.blend'
# www.blender.org
o Krulya2
v -0.921443 0.316259 -0.017206
v -0.384780 0.347723 -0.685364
v -0.238806 0.557750 -1.369160
v -0.149139 0.362336 -1.569381
v -0.195692 0.361484 -1.569381
v -0.285359 0.556897 -1.369160
v -0.195697 0.361780 -0.106754
v -0.197221 0.445087 -0.106754
v -0.150670 0.445939 -0.106754
v -0.149145 0.362632 -0.106754
v 0.017903 0.169729 -1.369160
v -0.147634 0.280122 -0.106754
v -0.194187 0.279270 -0.106754
v -0.028649 0.168876 -1.369160
v -0.483658 0.230943 -0.123063
v -0.485870 0.351697 -0.173089
v -0.082448 0.368607 -0.173089
v -0.080239 0.247853 -0.123063
v -0.488080 0.472451 -0.123063
v -0.084659 0.489361 -0.123063
v -0.485465 0.522469 -0.002288
v -0.085574 0.539379 -0.002288
v -0.484549 0.472451 0.118486
v -0.084659 0.489361 0.118486
v -0.482339 0.351697 0.168512
v -0.082448 0.368607 0.168512
v -0.480127 0.230943 0.118486
v -0.080239 0.247853 0.118486
v -0.482743 0.180925 -0.002288
v -0.079323 0.197835 -0.002288
v 0.690642 0.370694 -0.002288
v -0.231605 0.164401 1.334518
v -0.149151 0.362965 1.534738
v -0.195703 0.362113 1.534738
v -0.278159 0.163549 1.334518
v -0.195698 0.361816 0.072111
v -0.194173 0.278509 0.072111
v -0.147619 0.279362 0.072111
v -0.149146 0.362668 0.072111
v 0.010731 0.561557 1.334518
v -0.150655 0.445179 0.072111
v -0.197209 0.444327 0.072111
v -0.035822 0.560705 1.334518
vt 0.079959 0.159191
vt 0.098187 0.182354
vt 0.076453 0.159309
vt 0.133493 0.178462
vt 0.107203 0.014602
vt 0.122481 0.014031
vt 0.105643 0.038295
vt 0.097575 0.037847
vt 0.113658 0.037880
vt 0.125400 0.161433
vt 0.122245 0.161143
vt 0.094068 0.037525
vt 0.068360 0.175636
vt 0.097281 0.206302
vt 0.098540 0.179160
vt 0.236988 0.266480
vt 0.234228 0.181429
vt 0.232743 0.266483
vt 0.225039 0.266478
vt 0.238531 0.180741
vt 0.206346 0.266477
vt 0.225529 0.180105
vt 0.185564 0.180230
vt 0.205562 0.179893
vt 0.187683 0.266478
vt 0.172448 0.180918
vt 0.175836 0.266481
vt 0.176506 0.181554
vt 0.180275 0.266484
vt 0.205265 0.181766
vt 0.206582 0.266485
vt 0.235780 0.282291
vt 0.246055 0.307094
vt 0.210973 0.307522
vt 0.235780 0.331897
vt 0.210973 0.342170
vt 0.186166 0.331897
vt 0.175890 0.307094
vt 0.186166 0.282291
vt 0.210973 0.272017
vt 0.079959 0.159177
vt 0.098187 0.182340
vt 0.076453 0.159295
vt 0.133493 0.178448
vt 0.107203 0.014587
vt 0.122481 0.014017
vt 0.105643 0.038280
vt 0.097575 0.037833
vt 0.113658 0.037866
vt 0.125400 0.161419
vt 0.122245 0.161129
vt 0.094068 0.037511
vt 0.068360 0.175622
vt 0.097281 0.206288
vt 0.098540 0.179146
vt 0.117125 0.037866
vt 0.091800 0.013578
vt 0.117125 0.037852
vt 0.091800 0.013563
vn 0.8490 0.5199 -0.0942
vn -0.8721 -0.4805 -0.0926
vn -0.9924 -0.1208 0.0221
vn -0.9958 -0.0867 -0.0286
vn -0.9848 0.1484 0.0900
vn 0.9958 0.0868 0.0286
vn 0.9256 0.3764 -0.0389
vn 0.9894 0.0056 0.1449
vn -0.7017 -0.7116 -0.0338
vn 0.9103 0.4133 -0.0210
vn -0.1732 -0.4517 -0.8752
vn 0.0002 -0.0057 -1.0000
vn -0.2149 -0.6943 -0.6869
vn 0.0297 -0.7094 -0.7041
vn -0.0294 0.7015 -0.7121
vn 0.1439 0.3370 -0.9304
vn -0.0421 0.9991 -0.0031
vn 0.1330 0.8969 -0.4217
vn -0.2462 0.6530 0.7163
vn 0.1366 0.9335 0.3315
vn -0.0298 0.7036 0.7099
vn -0.2287 -0.0439 0.9725
vn 0.0002 -0.0058 1.0000
vn -0.2115 -0.7209 0.6600
vn 0.0300 -0.7122 0.7013
vn -0.2040 -0.9780 -0.0431
vn 0.0419 -0.9991 -0.0041
vn 1.0000 0.0034 0.0000
vn 0.8675 -0.4885 0.0942
vn -0.8891 0.4483 0.0926
vn -0.9962 0.0844 -0.0221
vn -0.9983 0.0502 0.0286
vn -0.9787 -0.1844 -0.0900
vn 0.9983 -0.0503 -0.0286
vn 0.9388 -0.3423 0.0389
vn 0.9890 0.0306 -0.1449
vn -0.7273 0.6855 0.0338
vn 0.9249 -0.3797 0.0210
vn -0.1897 0.4451 0.8752
vn -0.9016 -0.4219 -0.0950
vn -0.9165 0.3886 0.0950
s 1
f 3/1/1 5/2/2 6/3/3
f 6/4/3 7/5/4 8/6/5
f 10/7/6 3/1/1 9/8/7
f 12/9/8 14/10/9 11/11/10
f 3/1/1 8/12/5 9/8/7
f 14/13/9 7/5/4 5/14/2
f 10/7/6 11/11/10 4/15/11
f 4/15/11 14/10/9 5/2/2
f 16/16/12 18/17/13 15/18/14
f 19/19/15 17/20/16 16/16/12
f 21/21/17 20/22/18 19/19/15
f 21/21/17 24/23/19 22/24/20
f 23/25/21 26/26/22 24/23/19
f 25/27/23 28/28/24 26/26/22
f 27/29/25 30/30/26 28/28/24
f 15/18/14 30/30/26 29/31/27
f 18/32/13 17/33/16 31/34/28
f 17/33/16 20/35/18 31/34/28
f 20/35/18 22/36/20 31/34/28
f 22/36/20 24/37/19 31/34/28
f 24/37/19 26/38/22 31/34/28
f 26/38/22 28/39/24 31/34/28
f 28/39/24 30/40/26 31/34/28
f 30/40/26 18/32/13 31/34/28
f 32/41/29 34/42/30 35/43/31
f 35/44/31 36/45/32 37/46/33
f 39/47/34 32/41/29 38/48/35
f 41/49/36 43/50/37 40/51/38
f 32/41/29 37/52/33 38/48/35
f 43/53/37 36/45/32 34/54/30
f 39/47/34 40/51/38 33/55/39
f 33/55/39 43/50/37 34/42/30
f 3/1/1 4/15/11 5/2/2
f 6/4/3 5/14/2 7/5/4
f 10/7/6 4/15/11 3/1/1
f 12/9/8 13/56/40 14/10/9
f 3/1/1 6/3/3 8/12/5
f 14/13/9 13/57/40 7/5/4
f 10/7/6 12/9/8 11/11/10
f 4/15/11 11/11/10 14/10/9
f 16/16/12 17/20/16 18/17/13
f 19/19/15 20/22/18 17/20/16
f 21/21/17 22/24/20 20/22/18
f 21/21/17 23/25/21 24/23/19
f 23/25/21 25/27/23 26/26/22
f 25/27/23 27/29/25 28/28/24
f 27/29/25 29/31/27 30/30/26
f 15/18/14 18/17/13 30/30/26
f 32/41/29 33/55/39 34/42/30
f 35/44/31 34/54/30 36/45/32
f 39/47/34 33/55/39 32/41/29
f 41/49/36 42/58/41 43/50/37
f 32/41/29 35/43/31 37/52/33
f 43/53/37 42/59/41 36/45/32
f 39/47/34 41/49/36 40/51/38
f 33/55/39 40/51/38 43/50/37
